<?xml version="1.0" encoding="UTF-8" standalone="no"?>
<!DOCTYPE svg PUBLIC "-//W3C//DTD SVG 1.1//EN"
 "http://www.w3.org/Graphics/SVG/1.1/DTD/svg11.dtd">
<!-- Generated by graphviz version 2.43.0 (0)
 -->
<!-- Title: G Pages: 1 -->
<svg width="1253pt" height="491pt"
 viewBox="0.00 0.00 1252.60 491.00" xmlns="http://www.w3.org/2000/svg" xmlns:xlink="http://www.w3.org/1999/xlink">
<g id="graph0" class="graph" transform="scale(1 1) rotate(0) translate(4 487)">
<title>G</title>
<g id="a_graph0"><a xlink:title="This graph describes the influence of the name of the symlink, on the overall backup system.">
<polygon fill="white" stroke="transparent" points="-4,4 -4,-487 1248.6,-487 1248.6,4 -4,4"/>
</a>
</g>
<!-- symlink -->
<g id="node1" class="node">
<title>symlink</title>
<g id="a_node1"><a xlink:title="The symlink naming convention, ensures&#10; that we will never get a naming collision,&#10; due to wanting to backup folders with&#10; the same name.">
<polygon fill="lightblue" stroke="lightblue" points="783.6,-477 634.6,-477 634.6,-453 783.6,-453 795.6,-465 783.6,-477"/>
<text text-anchor="middle" x="715.1" y="-462.5" font-family="Times,serif" font-size="10.00">Symlink Naming convention</text>
</a>
</g>
</g>
<!-- symlinkfolder -->
<g id="node2" class="node">
<title>symlinkfolder</title>
<g id="a_node2"><a xlink:title="There is one symlinkfolder per scheme,&#10; every symlink commands backup by that&#10; scheme, of the folder the symlink points to.">
<polygon fill="lightblue" stroke="lightblue" points="612.6,-118 609.6,-122 588.6,-122 585.6,-118 475.6,-118 475.6,-77 612.6,-77 612.6,-118"/>
<text text-anchor="middle" x="544.1" y="-106" font-family="Times,serif" font-size="10.00">~/.local/share/</text>
<text text-anchor="middle" x="544.1" y="-95" font-family="Times,serif" font-size="10.00">FBsymlinks/&lt;scheme&gt;/</text>
<text text-anchor="middle" x="544.1" y="-84" font-family="Times,serif" font-size="10.00">&lt;source&#45;folder&#45;name&gt;</text>
</a>
</g>
</g>
<!-- symlink&#45;&gt;symlinkfolder -->
<g id="edge13" class="edge">
<title>symlink&#45;&gt;symlinkfolder</title>
<g id="a_edge13"><a xlink:title="The symlinks ending up in the folder for the scheme&#10; adhere to the naming convention. They serve as a&#10; token to try backup the folder, if they are valid.">
<path fill="none" stroke="red" d="M792.26,-446.99C937.29,-414.47 1236.1,-344.72 1236.1,-322 1236.1,-322 1236.1,-322 1236.1,-245.5 1236.1,-108.54 767.36,-145.09 633.1,-118 629.74,-117.32 626.32,-116.62 622.86,-115.9"/>
<polygon fill="red" stroke="red" points="623.55,-112.47 613.05,-113.84 622.12,-119.32 623.55,-112.47"/>
</a>
</g>
</g>
<!-- dropinsh -->
<g id="node4" class="node">
<title>dropinsh</title>
<g id="a_node4"><a xlink:title="A dropin directory gives you an opportunity to&#10; override the tar command for the backup of&#10; that folder, if there for instance are certain&#10; directories you want to exclude, like video&#10; directories, this is the place to do it, it must&#10; otherwise adhere to the scheme you have&#10; chosen. It has the same name as the&#10;symlink, with .d appended. If you do other&#10; more diverging things, like changing the&#10;compression scheme, then you must drop in&#10;a restore script here too, boilerplates are the&#10; standard scripts residing in the&#10; ~/local/bin/FB&lt;scheme&#45;folder&gt;">
<polygon fill="lightblue" stroke="lightblue" points="687.1,-411 684.1,-415 663.1,-415 660.1,-411 409.1,-411 409.1,-375 687.1,-375 687.1,-411"/>
<text text-anchor="middle" x="548.1" y="-390.5" font-family="Times,serif" font-size="10.00">~/.local/bin/FB/&lt;scheme&gt;/&lt;source&#45;folder&#45;name.d&gt;</text>
</a>
</g>
</g>
<!-- symlink&#45;&gt;dropinsh -->
<g id="edge8" class="edge">
<title>symlink&#45;&gt;dropinsh</title>
<g id="a_edge8"><a xlink:title="The &quot;dropin.sh&quot; must have the same name as&#10; the as the adhering symlink, appended with &quot;.sh&quot;.">
<path fill="none" stroke="red" d="M674.25,-446.88C651.32,-437.26 622.52,-425.19 598.23,-415.01"/>
<polygon fill="red" stroke="red" points="599.4,-411.71 588.82,-411.07 596.69,-418.16 599.4,-411.71"/>
</a>
</g>
</g>
<!-- destFolPeriodic -->
<g id="node5" class="node">
<title>destFolPeriodic</title>
<g id="a_node5"><a xlink:title="The destination folder has subdirectories for each scheme,&#10; and a folder with the corresponding symlink name, under the&#10; folder of the symlink name, there will be backups with&#10; timestamped tarballs, or folders, depending on&#10; the backupscheme in use.">
<polygon fill="orange" stroke="orange" points="832.6,-267 829.6,-271 808.6,-271 805.6,-267 597.6,-267 597.6,-226 832.6,-226 832.6,-267"/>
<text text-anchor="middle" x="715.1" y="-255" font-family="Times,serif" font-size="10.00">/mnt/chromeos/</text>
<text text-anchor="middle" x="715.1" y="-244" font-family="Times,serif" font-size="10.00">GoogleDrive/MyDrive/FB/</text>
<text text-anchor="middle" x="715.1" y="-233" font-family="Times,serif" font-size="10.00">Periodic/&lt;scheme&gt;/&lt;source&#45;folder&#45;name&gt;</text>
</a>
</g>
</g>
<!-- symlink&#45;&gt;destFolPeriodic -->
<g id="edge24" class="edge">
<title>symlink&#45;&gt;destFolPeriodic</title>
<g id="a_edge24"><a xlink:title="The name of the folder under the scheme&#45;folder,&#10; that contains all the backups of the folder, are&#10; named with the name of the symlink.">
<path fill="none" stroke="red" d="M715.1,-446.65C715.1,-409.77 715.1,-323.22 715.1,-277.31"/>
<polygon fill="red" stroke="red" points="718.6,-277.1 715.1,-267.1 711.6,-277.1 718.6,-277.1"/>
</a>
</g>
</g>
<!-- destFolOneShot -->
<g id="node6" class="node">
<title>destFolOneShot</title>
<g id="a_node6"><a xlink:title="The destination folder for OneShot backups has subdirectories for&#10; each folder named &#160;with the corresponding symlink name, in this&#10; &#160;with the full symlink name, there will be backups named by the&#10; base folder name and timestamp, the actual backup maybe be a&#10; single file like a tarball, or a &#160;folder, depending on the&#10; backupscheme in use.">
<polygon fill="orange" stroke="orange" points="1031.1,-267 1028.1,-271 1007.1,-271 1004.1,-267 851.1,-267 851.1,-226 1031.1,-226 1031.1,-267"/>
<text text-anchor="middle" x="941.1" y="-255" font-family="Times,serif" font-size="10.00">/mnt/chromeos/</text>
<text text-anchor="middle" x="941.1" y="-244" font-family="Times,serif" font-size="10.00">GoogleDrive/MyDrive/FB/</text>
<text text-anchor="middle" x="941.1" y="-233" font-family="Times,serif" font-size="10.00">OneShot/&lt;source&#45;folder&#45;name&gt;</text>
</a>
</g>
</g>
<!-- symlink&#45;&gt;destFolOneShot -->
<g id="edge9" class="edge">
<title>symlink&#45;&gt;destFolOneShot</title>
<path fill="none" stroke="red" d="M733.21,-446.65C772.6,-408.91 866.28,-319.17 913.25,-274.18"/>
<polygon fill="red" stroke="red" points="915.84,-276.54 920.64,-267.1 911,-271.49 915.84,-276.54"/>
</g>
<!-- restore_folder -->
<g id="node10" class="node">
<title>restore_folder</title>
<g id="a_node10"><a xlink:title="The resttore script will generate a folder with the full&#10; source folder name under /tmp, and restore into that&#10; folder, using the backup name consisting of folder&#10;&#45;timestamp name, as the backup, in order to have&#10; multiple backups restored for comparision.">
<polygon fill="orange" stroke="orange" points="1208.6,-264.5 1205.6,-268.5 1184.6,-268.5 1181.6,-264.5 1049.6,-264.5 1049.6,-228.5 1208.6,-228.5 1208.6,-264.5"/>
<text text-anchor="middle" x="1129.1" y="-244" font-family="Times,serif" font-size="10.00">/tmp/&lt;source&#45;folder&#45;name&gt;</text>
</a>
</g>
</g>
<!-- symlink&#45;&gt;restore_folder -->
<g id="edge17" class="edge">
<title>symlink&#45;&gt;restore_folder</title>
<g id="a_edge17"><a xlink:title="The symlinks ending up in the folder for the scheme&#10; adhere to the naming convention. They serve as a&#10; token to try backup the folder, if they are valid.">
<path fill="none" stroke="red" d="M747.93,-446.83C822.61,-407.78 1005.06,-312.37 1087.48,-269.27"/>
<polygon fill="red" stroke="red" points="1089.31,-272.26 1096.55,-264.52 1086.07,-266.05 1089.31,-272.26"/>
</a>
</g>
</g>
<!-- bck_governor -->
<g id="node12" class="node">
<title>bck_governor</title>
<g id="a_node12"><a xlink:title="The governor of a scheme, gets the symlinks&#10; from that backup scheme&#39;s corresponding&#10; folder, and passes them to the executor&#10; if they are valid.">
<ellipse fill="lightgreen" stroke="lightgreen" cx="538.1" cy="-20.5" rx="65.18" ry="18"/>
<text text-anchor="middle" x="538.1" y="-18" font-family="Times,serif" font-size="10.00">Backup Governors</text>
</a>
</g>
</g>
<!-- symlinkfolder&#45;&gt;bck_governor -->
<g id="edge22" class="edge">
<title>symlinkfolder&#45;&gt;bck_governor</title>
<g id="a_edge22"><a xlink:title="The governor for a scheme, finds and vets the symlinks&#10; for a scheme, and makes call to the executor with&#10; the symlink as a parameter.">
<path fill="none" stroke="black" d="M541.7,-66.56C540.95,-57.12 540.14,-47.02 539.48,-38.78"/>
<polygon fill="black" stroke="black" points="538.24,-67.11 542.52,-76.79 545.22,-66.55 538.24,-67.11"/>
</a>
</g>
</g>
<!-- configfolder -->
<g id="node3" class="node">
<title>configfolder</title>
<g id="a_node3"><a xlink:title="There is one config folder containing configuration&#10; files with symlinkname for each directory, no matter&#10; the scheme.">
<polygon fill="lightblue" stroke="lightblue" points="718.6,-115.5 715.6,-119.5 694.6,-119.5 691.6,-115.5 641.6,-115.5 641.6,-79.5 718.6,-79.5 718.6,-115.5"/>
<text text-anchor="middle" x="680.1" y="-100.5" font-family="Times,serif" font-size="10.00">~/.local/bin/</text>
<text text-anchor="middle" x="680.1" y="-89.5" font-family="Times,serif" font-size="10.00">FB/</text>
</a>
</g>
</g>
<!-- services_folder -->
<g id="node8" class="node">
<title>services_folder</title>
<g id="a_node8"><a xlink:title="This folder contains all the services for for the different schemes,&#10;which in turn, starts the governor, which enables backup of the&#10; symlinked directories, from the folder according to the scheme.">
<polygon fill="lightgreen" stroke="lightgreen" points="751.1,-41 748.1,-45 727.1,-45 724.1,-41 621.1,-41 621.1,0 751.1,0 751.1,-41"/>
<text text-anchor="middle" x="686.1" y="-29" font-family="Times,serif" font-size="10.00">~/.config/systemd/</text>
<text text-anchor="middle" x="686.1" y="-18" font-family="Times,serif" font-size="10.00">user/</text>
<text text-anchor="middle" x="686.1" y="-7" font-family="Times,serif" font-size="10.00">&lt;service&#45;for&#45;scheme&gt;</text>
</a>
</g>
</g>
<!-- configfolder&#45;&gt;services_folder -->
<g id="edge23" class="edge">
<title>configfolder&#45;&gt;services_folder</title>
<g id="a_edge23"><a xlink:title="The service for a scheme, calls&#10; the governor for the same scheme">
<path fill="none" stroke="black" d="M682.26,-69.44C683.01,-60.07 683.84,-49.76 684.53,-41.1"/>
<polygon fill="black" stroke="black" points="678.77,-69.23 681.46,-79.48 685.75,-69.79 678.77,-69.23"/>
</a>
</g>
</g>
<!-- configfolder&#45;&gt;bck_governor -->
<g id="edge21" class="edge">
<title>configfolder&#45;&gt;bck_governor</title>
<g id="a_edge21"><a xlink:title="The governor for a scheme, checks if symlinks are to be&#10; followed, and makes the call to the correct executor with&#10; the symlink as a parameter.">
<path fill="none" stroke="black" d="M647.88,-79.48C626.45,-68.16 598.21,-53.25 575.75,-41.38"/>
<polygon fill="black" stroke="black" points="577.3,-38.25 566.82,-36.67 574.03,-44.44 577.3,-38.25"/>
</a>
</g>
</g>
<!-- bck_executor -->
<g id="node17" class="node">
<title>bck_executor</title>
<g id="a_node17"><a xlink:title="The handler that performs the actual backup, is passed&#10; the symlink to the folder to backup, it uses it to look&#10; for an override of the backup command in that folder,&#10; it also uses the symlink to deduce the parent directory,&#10; and actual destination folder of the backup.&#10;It also uses the symlink to check if there is any files&#10; have changed, before making a backup.">
<ellipse fill="lightgreen" stroke="lightgreen" cx="548.1" cy="-321" rx="64.33" ry="18"/>
<text text-anchor="middle" x="548.1" y="-318.5" font-family="Times,serif" font-size="10.00">Backup Executors</text>
</a>
</g>
</g>
<!-- dropinsh&#45;&gt;bck_executor -->
<g id="edge10" class="edge">
<title>dropinsh&#45;&gt;bck_executor</title>
<g id="a_edge10"><a xlink:title="The &quot;dropin.sh&quot; will be used as an override if it exists.&#10;It must have the same name as the as the adhering&#10; symlink, appended with &quot;.sh&quot;.">
<path fill="none" stroke="black" stroke-dasharray="1,5" d="M548.1,-374.7C548.1,-366.98 548.1,-357.71 548.1,-349.11"/>
<polygon fill="black" stroke="black" points="551.6,-349.1 548.1,-339.1 544.6,-349.1 551.6,-349.1"/>
</a>
</g>
</g>
<!-- usr_commands -->
<g id="node7" class="node">
<title>usr_commands</title>
<g id="a_node7"><a xlink:title="This folder contains all the user commands &#160;for the Folder Backup System">
<polygon fill="lightgreen" stroke="lightgreen" points="210.6,-483 207.6,-487 186.6,-487 183.6,-483 61.6,-483 61.6,-447 210.6,-447 210.6,-483"/>
<text text-anchor="middle" x="136.1" y="-462.5" font-family="Times,serif" font-size="10.00">~/.local/bin/FBCommands</text>
</a>
</g>
</g>
<!-- bck_oneshot -->
<g id="node13" class="node">
<title>bck_oneshot</title>
<g id="a_node13"><a xlink:title="Easy snapshot of a folder, ending up with a time stamp,&#10; in the FB/OneShot folder by symlink name fully out&#10; by the same standard, as the rest of the system, and&#10; a time stamp.">
<ellipse fill="lightgreen" stroke="lightgreen" cx="293.1" cy="-393" rx="60.09" ry="18"/>
<text text-anchor="middle" x="293.1" y="-390.5" font-family="Times,serif" font-size="10.00">OneShot Backup</text>
</a>
</g>
</g>
<!-- usr_commands&#45;&gt;bck_oneshot -->
<g id="edge5" class="edge">
<title>usr_commands&#45;&gt;bck_oneshot</title>
<path fill="none" stroke="black" d="M174.51,-446.88C197.91,-436.44 227.81,-423.11 251.73,-412.45"/>
<polygon fill="black" stroke="black" points="253.2,-415.62 260.91,-408.35 250.35,-409.23 253.2,-415.62"/>
</g>
<!-- bck_restorer -->
<g id="node14" class="node">
<title>bck_restorer</title>
<g id="a_node14"><a xlink:title="Easy restore of a folder">
<ellipse fill="lightgreen" stroke="lightgreen" cx="57.1" cy="-321" rx="57.2" ry="18"/>
<text text-anchor="middle" x="57.1" y="-318.5" font-family="Times,serif" font-size="10.00">Restore Backup</text>
</a>
</g>
</g>
<!-- usr_commands&#45;&gt;bck_restorer -->
<g id="edge2" class="edge">
<title>usr_commands&#45;&gt;bck_restorer</title>
<path fill="none" stroke="black" d="M61.52,-447.3C42.94,-439.43 25.18,-427.9 14.1,-411 0.43,-390.16 16.12,-364.32 32.24,-345.86"/>
<polygon fill="black" stroke="black" points="34.89,-348.15 39.1,-338.43 29.74,-343.41 34.89,-348.15"/>
</g>
<!-- bck_ctl -->
<g id="node15" class="node">
<title>bck_ctl</title>
<g id="a_node15"><a xlink:title="systemctl alike command">
<ellipse fill="lightgreen" stroke="lightgreen" cx="50.1" cy="-393" rx="27.16" ry="18"/>
<text text-anchor="middle" x="50.1" y="-390.5" font-family="Times,serif" font-size="10.00">FBctl </text>
</a>
</g>
</g>
<!-- usr_commands&#45;&gt;bck_ctl -->
<g id="edge6" class="edge">
<title>usr_commands&#45;&gt;bck_ctl</title>
<path fill="none" stroke="black" d="M114.84,-446.7C102.6,-436.73 87.17,-424.17 74.44,-413.81"/>
<polygon fill="black" stroke="black" points="76.5,-410.97 66.53,-407.38 72.08,-416.4 76.5,-410.97"/>
</g>
<!-- bck_jnl -->
<g id="node16" class="node">
<title>bck_jnl</title>
<g id="a_node16"><a xlink:title="journalctl alike command">
<ellipse fill="lightgreen" stroke="lightgreen" cx="136.1" cy="-393" rx="41.41" ry="18"/>
<text text-anchor="middle" x="136.1" y="-390.5" font-family="Times,serif" font-size="10.00">FBjournal </text>
</a>
</g>
</g>
<!-- usr_commands&#45;&gt;bck_jnl -->
<g id="edge7" class="edge">
<title>usr_commands&#45;&gt;bck_jnl</title>
<path fill="none" stroke="black" d="M136.1,-446.7C136.1,-438.98 136.1,-429.71 136.1,-421.11"/>
<polygon fill="black" stroke="black" points="139.6,-421.1 136.1,-411.1 132.6,-421.1 139.6,-421.1"/>
</g>
<!-- bck_installer -->
<g id="node18" class="node">
<title>bck_installer</title>
<g id="a_node18"><a xlink:title="The backup installer, which enables backup&#10; of a folder, creates first the symlink name,&#10; then drops a symlink with that name into&#10; the symlink folder, according to the sheme&#10; in use.&#10;The script resides in the .local/bin/FB folder.">
<ellipse fill="lightgreen" stroke="lightgreen" cx="381.1" cy="-172" rx="58.73" ry="18"/>
<text text-anchor="middle" x="381.1" y="-169.5" font-family="Times,serif" font-size="10.00">Backup Installer</text>
</a>
</g>
</g>
<!-- usr_commands&#45;&gt;bck_installer -->
<g id="edge1" class="edge">
<title>usr_commands&#45;&gt;bck_installer</title>
<path fill="none" stroke="black" d="M153.34,-446.84C163.25,-436.7 175.75,-423.45 186.1,-411 251.15,-332.71 252.55,-301.25 321.1,-226 330.87,-215.27 342.65,-204.48 353.17,-195.46"/>
<polygon fill="black" stroke="black" points="355.53,-198.06 360.92,-188.94 351.02,-192.7 355.53,-198.06"/>
</g>
<!-- source_folder -->
<g id="node9" class="node">
<title>source_folder</title>
<g id="a_node9"><a xlink:title="The symlink is generated from the full pathname&#10; of the source folder of the backup, to ensure that&#10; the symlinkname will be a unique name, and no&#10; ambiguities can occur.">
<polygon fill="orange" stroke="orange" points="431.6,-264.5 428.6,-268.5 407.6,-268.5 404.6,-264.5 330.6,-264.5 330.6,-228.5 431.6,-228.5 431.6,-264.5"/>
<text text-anchor="middle" x="381.1" y="-244" font-family="Times,serif" font-size="10.00">&lt;source&#45;folder&gt;</text>
</a>
</g>
</g>
<!-- source_folder&#45;&gt;symlink -->
<g id="edge25" class="edge">
<title>source_folder&#45;&gt;symlink</title>
<g id="a_edge25"><a xlink:title="The full path name of the source folder is the basis for the symlink name.">
<path fill="none" stroke="red" stroke-width="2" d="M377.18,-264.55C370.69,-297.64 361.91,-370.81 400.1,-411 430.17,-442.64 542.39,-455.41 624.34,-460.55"/>
<polygon fill="red" stroke="red" stroke-width="2" points="624.24,-464.05 634.43,-461.16 624.66,-457.07 624.24,-464.05"/>
</a>
</g>
</g>
<!-- source_folder&#45;&gt;bck_installer -->
<g id="edge26" class="edge">
<title>source_folder&#45;&gt;bck_installer</title>
<g id="a_edge26"><a xlink:title="The source folder is given as a parameter&#10; to the install backup script for the scheme.">
<path fill="none" stroke="black" d="M381.1,-228.32C381.1,-219.92 381.1,-209.62 381.1,-200.19"/>
<polygon fill="black" stroke="black" points="384.6,-200.06 381.1,-190.06 377.6,-200.06 384.6,-200.06"/>
</a>
</g>
</g>
<!-- bck_script_scheme_folder -->
<g id="node11" class="node">
<title>bck_script_scheme_folder</title>
<g id="a_node11"><a xlink:title="The symlink is generated from the full pathname&#10; of the source folder of the backup, to ensure that&#10; the symlinkname will be a unique name, and no&#10; ambiguities can occur.">
<polygon fill="lightblue" stroke="lightblue" points="457.1,-115.5 454.1,-119.5 433.1,-119.5 430.1,-115.5 305.1,-115.5 305.1,-79.5 457.1,-79.5 457.1,-115.5"/>
<text text-anchor="middle" x="381.1" y="-95" font-family="Times,serif" font-size="10.00">~/.local/bin/FB/&lt;scheme&gt;/</text>
</a>
</g>
</g>
<!-- bck_script_scheme_folder&#45;&gt;bck_governor -->
<g id="edge15" class="edge">
<title>bck_script_scheme_folder&#45;&gt;bck_governor</title>
<g id="a_edge15"><a xlink:title="The symlinks ending up in the folder for the scheme&#10; adhere to the naming convention. They serve as a&#10; token to try backup the folder, if they are valid.">
<path fill="none" stroke="black" d="M425.96,-75.07C451.83,-62.71 483.72,-47.48 506.87,-36.42"/>
<polygon fill="black" stroke="black" points="424.24,-72.01 416.73,-79.48 427.26,-78.33 424.24,-72.01"/>
</a>
</g>
</g>
<!-- bck_oneshot&#45;&gt;bck_executor -->
<g id="edge4" class="edge">
<title>bck_oneshot&#45;&gt;bck_executor</title>
<path fill="none" stroke="black" d="M335.78,-380.28C379.33,-368.33 447.04,-349.74 494.25,-336.78"/>
<polygon fill="black" stroke="black" points="495.28,-340.13 504,-334.11 493.43,-333.38 495.28,-340.13"/>
</g>
<!-- bck_restorer&#45;&gt;bck_script_scheme_folder -->
<g id="edge3" class="edge">
<title>bck_restorer&#45;&gt;bck_script_scheme_folder</title>
<path fill="none" stroke="black" d="M79.29,-304.22C105.79,-285.43 151.5,-253.17 191.1,-226 245.08,-188.96 308.29,-146.78 346.49,-121.42"/>
<polygon fill="black" stroke="black" points="348.77,-124.1 355.17,-115.65 344.9,-118.27 348.77,-124.1"/>
</g>
<!-- bck_executor&#45;&gt;destFolPeriodic -->
<g id="edge19" class="edge">
<title>bck_executor&#45;&gt;destFolPeriodic</title>
<g id="a_edge19"><a xlink:title="The new &#160;backup ends up in the the folder with&#10; the symlink name adhering to the convention,&#10; under the correct scheme">
<path fill="none" stroke="blue" d="M590.81,-301.46C612.13,-292.2 638.16,-280.9 660.88,-271.04"/>
<polygon fill="blue" stroke="blue" points="589.27,-298.31 581.49,-305.5 592.06,-304.73 589.27,-298.31"/>
<polygon fill="blue" stroke="blue" points="662.28,-274.25 670.06,-267.05 659.49,-267.83 662.28,-274.25"/>
</a>
</g>
</g>
<!-- bck_executor&#45;&gt;destFolOneShot -->
<g id="edge20" class="edge">
<title>bck_executor&#45;&gt;destFolOneShot</title>
<g id="a_edge20"><a xlink:title="The new &#160;OneShot backup ends up in the the folder with&#10; the symlink name adhering to the convention.&#10; If it doesn&#39;t exist, it will be made.">
<path fill="none" stroke="blue" d="M611,-308.96C668.35,-298.83 755.71,-283.23 841.14,-267.17"/>
<polygon fill="blue" stroke="blue" points="610.23,-305.54 600.99,-310.73 611.45,-312.44 610.23,-305.54"/>
<polygon fill="blue" stroke="blue" points="841.82,-270.6 851,-265.31 840.53,-263.72 841.82,-270.6"/>
</a>
</g>
</g>
<!-- bck_executor&#45;&gt;source_folder -->
<g id="edge18" class="edge">
<title>bck_executor&#45;&gt;source_folder</title>
<g id="a_edge18"><a xlink:title="The files in the source folder are backed up by the executioner,&#10;via the symlink adhering to the convention.">
<path fill="none" stroke="blue" d="M505.4,-301.46C479.18,-290.08 445.85,-275.61 420.3,-264.52"/>
<polygon fill="blue" stroke="blue" points="504.14,-304.73 514.71,-305.5 506.93,-298.31 504.14,-304.73"/>
</a>
</g>
</g>
<!-- bck_executor&#45;&gt;restore_folder -->
<g id="edge16" class="edge">
<title>bck_executor&#45;&gt;restore_folder</title>
<g id="a_edge16"><a xlink:title="The symlinks ending up in the folder for the scheme&#10; adhere to the naming convention. They serve as a&#10; token to try backup the folder, if they are valid.">
<path fill="none" stroke="blue" d="M609.36,-315.55C702.71,-308.28 885.99,-292.11 1040.1,-267 1041.37,-266.79 1042.66,-266.58 1043.95,-266.36"/>
<polygon fill="blue" stroke="blue" points="1044.72,-269.78 1053.95,-264.57 1043.49,-262.89 1044.72,-269.78"/>
</a>
</g>
</g>
<!-- bck_executor&#45;&gt;bck_script_scheme_folder -->
<g id="edge14" class="edge">
<title>bck_executor&#45;&gt;bck_script_scheme_folder</title>
<g id="a_edge14"><a xlink:title="The governor calls the executor with a symlink as a parameter.">
<path fill="none" stroke="black" d="M535.96,-293.6C519.38,-259.21 487.31,-198.28 449.1,-154 436.56,-139.46 419.89,-125.79 406.19,-115.66"/>
<polygon fill="black" stroke="black" points="532.96,-295.43 540.41,-302.96 539.28,-292.43 532.96,-295.43"/>
</a>
</g>
</g>
<!-- bck_installer&#45;&gt;symlinkfolder -->
<g id="edge11" class="edge">
<title>bck_installer&#45;&gt;symlinkfolder</title>
<g id="a_edge11"><a xlink:title="The installer drops a symlink, according&#10; to naming conventions into the symlink&#10; folder for that backup scheme.">
<path fill="none" stroke="black" d="M412.92,-156.85C435.03,-147.01 465.04,-133.67 490.77,-122.22"/>
<polygon fill="black" stroke="black" points="492.32,-125.36 500.03,-118.1 489.47,-118.97 492.32,-125.36"/>
</a>
</g>
</g>
<!-- bck_installer&#45;&gt;bck_script_scheme_folder -->
<g id="edge12" class="edge">
<title>bck_installer&#45;&gt;bck_script_scheme_folder</title>
<g id="a_edge12"><a xlink:title="When the installer have set everything up,&#10; it immediately executes a backup via the&#10; backup executor. You may want to remove&#10; this backup, or use the dryrun option to&#10; avoid it, if there are video files involved that&#10; you&#39;d want to exclude by creating a &quot;dropin.sh&quot;.">
<path fill="none" stroke="black" d="M381.1,-153.82C381.1,-145.42 381.1,-135.12 381.1,-125.69"/>
<polygon fill="black" stroke="black" points="384.6,-125.56 381.1,-115.56 377.6,-125.56 384.6,-125.56"/>
</a>
</g>
</g>
<!-- systemInstaller -->
<g id="node19" class="node">
<title>systemInstaller</title>
<polygon fill="none" stroke="white" points="1238.6,-483 813.6,-483 813.6,-447 1244.6,-447 1244.6,-477 1238.6,-483"/>
<polyline fill="none" stroke="white" points="1238.6,-483 1238.6,-477 "/>
<polyline fill="none" stroke="white" points="1244.6,-477 1238.6,-477 "/>
<text text-anchor="middle" x="1029.1" y="-461.3" font-family="Times,serif" font-size="14.00">The FB System, context diagram over the running system</text>
</g>
</g>
</svg>
